<svg width="196" height="30" viewBox="0 0 196 30" fill="none" xmlns="http://www.w3.org/2000/svg">
<path d="M55.7252 23.1996H60.418C61.2224 23.1996 61.9768 23.0617 62.6809 22.7849C63.3847 22.5088 64.016 22.0635 64.5747 21.4512C65.1331 20.8383 65.5748 20.0339 65.8986 19.0367C66.2224 18.0395 66.3848 16.8554 66.3848 15.4861C66.3848 12.7233 65.8597 10.6146 64.8093 9.1603C63.7588 7.70701 61.9821 6.97971 59.4796 6.97971H55.7252V23.1996ZM50.4626 2.22219H60.7869C64.0267 2.22219 66.6471 3.30955 68.6477 5.48394C70.6473 7.65898 71.6471 10.8129 71.6471 14.9454C71.6471 16.8443 71.4239 18.5802 70.9773 20.1535C70.53 21.7276 69.8484 23.1041 68.9326 24.281C68.0158 25.4582 66.8762 26.3656 65.5134 27.0024C64.1499 27.6392 62.5741 27.9574 60.7869 27.9574H50.4626V2.22219Z" fill="white"/>
<path d="M79.2204 18.4237C79.4661 19.4454 79.8519 20.3641 80.3773 21.1809C80.9017 21.9984 81.578 22.6408 82.405 23.1096C83.2316 23.5778 84.2151 23.8121 85.355 23.8121C86.494 23.8121 87.4837 23.5723 88.3214 23.0913C89.1592 22.6107 89.8352 21.9687 90.3494 21.163C90.8631 20.3582 91.243 19.4454 91.4887 18.4237C91.7348 17.4026 91.8576 16.3274 91.8576 15.1979C91.8576 14.0207 91.7348 12.9032 91.4887 11.8459C91.243 10.7887 90.8631 9.85159 90.3494 9.03444C89.8352 8.21761 89.1592 7.56873 88.3214 7.08811C87.4837 6.60749 86.494 6.36702 85.355 6.36702C84.2151 6.36702 83.2261 6.60749 82.3883 7.08811C81.5503 7.56873 80.8739 8.21761 80.3603 9.03444C79.8461 9.85159 79.4661 10.7887 79.2204 11.8459C78.9747 12.9032 78.8521 14.0207 78.8521 15.1979C78.8521 16.3274 78.9747 17.4026 79.2204 18.4237ZM74.3936 9.86335C74.9298 8.2052 75.7061 6.75811 76.7235 5.52013C77.7403 4.28281 78.9799 3.32124 80.4443 2.63674C81.9074 1.95192 83.5446 1.60918 85.355 1.60918C87.1651 1.60918 88.802 1.95192 90.2658 2.63674C91.7292 3.32124 92.975 4.28281 94.0029 5.52013C95.0305 6.75811 95.8075 8.2052 96.3328 9.86335C96.8572 11.5212 97.1203 13.2996 97.1203 15.1979C97.1203 17.0481 96.8572 18.7841 96.3328 20.4059C95.8075 22.0278 95.0305 23.4517 94.0029 24.6773C92.975 25.9025 91.7292 26.8579 90.2658 27.5427C88.802 28.2275 87.1651 28.5699 85.355 28.5699C83.5446 28.5699 81.9074 28.2275 80.4443 27.5427C78.9799 26.8579 77.7403 25.9087 76.7235 24.6952C75.7061 23.4821 74.9298 22.0582 74.3936 20.4242C73.8574 18.7903 73.5889 17.0481 73.5889 15.1979C73.5889 13.2996 73.8574 11.5212 74.3936 9.86335Z" fill="white"/>
<path d="M99.5289 2.22215H106.938L112.536 19.9195H112.602L117.899 2.22215H125.307V27.9573H120.38V9.71896H120.312L114.446 27.9573H110.39L104.524 9.89932H104.457V27.9573H99.5289V2.22215Z" fill="white"/>
<path d="M129.863 2.22215H147.284V6.97999H135.126V12.9271H145.743V17.3243H135.126V27.9573H129.863V2.22215Z" fill="white"/>
<path d="M153.685 18.0092H159.886L156.869 8.56573H156.802L153.685 18.0092ZM154.187 2.22227H159.584L168.534 27.9571H163.071L161.261 22.226H152.31L150.433 27.9571H145.103L154.187 2.22227Z" fill="white"/>
<path d="M170.093 2.22215H177.501L183.099 19.9195H183.165L188.462 2.22215H195.87V27.9573H190.942V9.71896H190.875L185.009 27.9573H180.953L175.087 9.89932H175.02V27.9573H170.093V2.22215Z" fill="white"/>
<path d="M32.8888 21.7958H8.66998V8.64495H32.8888V21.7958Z" fill="white"/>
<path d="M41.9403 -1.2423e-06H0V30H41.9403V-1.2423e-06ZM37.1645 25.2242H4.77646V4.77614H37.1645V25.2242Z" fill="#692E2E"/>
<path d="M37.1579 4.71831H4.78321V25.2827H37.1579V4.71831ZM32.3817 20.5065H9.55934V9.49444H32.3817V20.5065Z" fill="#7DBDCB"/>
</svg>
