<svg width="131" height="20" viewBox="0 0 131 20" fill="none" xmlns="http://www.w3.org/2000/svg">
<path d="M37.1501 15.4664H40.2787C40.815 15.4664 41.3179 15.3744 41.7873 15.19C42.2565 15.0059 42.6773 14.709 43.0498 14.3008C43.422 13.8922 43.7165 13.3559 43.9324 12.6911C44.1482 12.0263 44.2565 11.237 44.2565 10.3241C44.2565 8.48219 43.9065 7.07638 43.2062 6.10687C42.5059 5.13801 41.3214 4.65314 39.6531 4.65314H37.1501V15.4664ZM33.6417 1.48146H40.5246C42.6845 1.48146 44.4314 2.20637 45.7651 3.65596C47.0982 5.10598 47.7647 7.2086 47.7647 9.96359C47.7647 11.2296 47.6159 12.3868 47.3182 13.4356C47.02 14.4851 46.5656 15.4028 45.9551 16.1874C45.3439 16.9722 44.5841 17.577 43.6756 18.0016C42.7666 18.4261 41.7161 18.6383 40.5246 18.6383H33.6417V1.48146Z" fill="#692E2E"/>
<path d="M52.8136 12.2824C52.9774 12.9636 53.2346 13.5761 53.5849 14.1206C53.9345 14.6656 54.3854 15.0938 54.9367 15.4064C55.4878 15.7186 56.1434 15.8747 56.9034 15.8747C57.6627 15.8747 58.3225 15.7149 58.8809 15.3942C59.4394 15.0738 59.8901 14.6458 60.233 14.1086C60.5754 13.5722 60.8287 12.9636 60.9925 12.2824C61.1565 11.6018 61.2384 10.8849 61.2384 10.1319C61.2384 9.34711 61.1565 8.60216 60.9925 7.8973C60.8287 7.19243 60.5754 6.56773 60.233 6.02296C59.8901 5.47841 59.4394 5.04582 58.8809 4.72541C58.3225 4.40499 57.6627 4.24468 56.9034 4.24468C56.1434 4.24468 55.484 4.40499 54.9256 4.72541C54.3669 5.04582 53.916 5.47841 53.5736 6.02296C53.2307 6.56773 52.9774 7.19243 52.8136 7.8973C52.6498 8.60216 52.5681 9.34711 52.5681 10.1319C52.5681 10.8849 52.6498 11.6018 52.8136 12.2824ZM49.5957 6.57557C49.9532 5.47013 50.4707 4.50541 51.149 3.68009C51.8269 2.85521 52.6533 2.21416 53.6295 1.75783C54.6049 1.30128 55.6964 1.07279 56.9034 1.07279C58.1101 1.07279 59.2014 1.30128 60.1772 1.75783C61.1528 2.21416 61.9834 2.85521 62.6686 3.68009C63.3537 4.50541 63.8716 5.47013 64.2219 6.57557C64.5715 7.68078 64.7468 8.86638 64.7468 10.1319C64.7468 11.3654 64.5715 12.5227 64.2219 13.604C63.8716 14.6852 63.3537 15.6345 62.6686 16.4515C61.9834 17.2683 61.1528 17.9052 60.1772 18.3618C59.2014 18.8183 58.1101 19.0466 56.9034 19.0466C55.6964 19.0466 54.6049 18.8183 53.6295 18.3618C52.6533 17.9052 51.8269 17.2725 51.149 16.4635C50.4707 15.6547 49.9532 14.7055 49.5957 13.6162C49.2383 12.5268 49.0592 11.3654 49.0592 10.1319C49.0592 8.86638 49.2383 7.68078 49.5957 6.57557Z" fill="#692E2E"/>
<path d="M66.3526 1.48143H71.2917L75.0238 13.2796H75.0682L78.5991 1.48143H83.5377V18.6382H80.253V6.47931H80.2079L76.2972 18.6382H73.5934L69.6827 6.59955H69.638V18.6382H66.3526V1.48143Z" fill="#692E2E"/>
<path d="M86.5754 1.48143H98.1894V4.65333H90.0838V8.61808H97.1617V11.5495H90.0838V18.6382H86.5754V1.48143Z" fill="#692E2E"/>
<path d="M102.456 12.0061H106.59L104.579 5.71048H104.535L102.456 12.0061ZM102.791 1.48151H106.39L112.356 18.6381H108.714L107.507 14.8173H101.54L100.289 18.6381H96.7356L102.791 1.48151Z" fill="#692E2E"/>
<path d="M113.395 1.48143H118.334L122.066 13.2796H122.11L125.641 1.48143H130.58V18.6382H127.295V6.47931H127.25L123.339 18.6382H120.636L116.725 6.59955H116.68V18.6382H113.395V1.48143Z" fill="#692E2E"/>
<path d="M21.9259 14.5305H5.77999V5.7633H21.9259V14.5305Z" fill="white"/>
<path d="M27.9602 8.39418e-08H0V20H27.9602V8.39418e-08ZM24.7764 16.8161H3.18431V3.18409H24.7764V16.8161Z" fill="#692E2E"/>
<path d="M24.7719 3.14554H3.18881V16.8551H24.7719V3.14554ZM21.5878 13.671H6.37289V6.32962H21.5878V13.671Z" fill="#7DBDCB"/>
</svg>
